#!OML:ASF H:\Terrain\Patient Classification 1\Takeo\Monday\TakeoMonday.ASF
:FULLY-SPECIFIED
:DEGREES
348
root 9.23029 17.543 0.510979 3.92893 -5.96949 -8.71607
lowerback 7.98755 5.17999 -3.65145
upperback 3.58276 6.47533 -8.08535
thorax -0.170182 3.26515 -6.92473
lowerneck -11.7004 -9.58397 -10.3331
upperneck -10.2787 -11.1081 15.1606
head 0.349122 -5.25364 5.74994
rclavicle 6.67916e-014 3.18055e-014
rhumerus 70.2323 -12.7631 -46.0399
rradius 26.1005
rwrist -2.99162
rhand -22.8444 17.0951
rfingers 7.12502
rthumb 3.59337 -12.8544
lclavicle 6.67916e-014 3.18055e-014
lhumerus -36.3052 -5.22803 87.6721
lradius 114.658
lwrist 20.8012
lhand -25.5727 4.39474
lfingers 7.12502
lthumb 0.958477 34.3723
rfemur 4.92241 -19.421 31.6048
rtibia 14.2321
rfoot -15.6217 -23.8656
rtoes -10.0632
lfemur -25.5147 2.97206 -9.42777
ltibia 40.4469
lfoot -13.2503 4.38985
ltoes -16.6995
349
root 9.22548 17.5412 0.517981 3.8281 -6.1378 -8.68833
lowerback 8.05281 5.27196 -3.7388
upperback 3.59828 6.58431 -8.14294
thorax -0.181686 3.31892 -6.9524
lowerneck -11.8068 -9.61208 -10.4815
upperneck -10.1947 -11.1269 15.1513
head 0.399384 -5.25203 5.7621
rclavicle 7.95139e-015 -1.90833e-014
rhumerus 69.1412 -12.5327 -45.1086
rradius 27.6468
rwrist -4.40781
rhand -23.2789 17.7252
rfingers 7.12502
rthumb 3.17375 -12.2309
lclavicle 7.95139e-015 -1.90833e-014
lhumerus -36.5386 -5.14984 87.8301
lradius 114.531
lwrist 20.76
lhand -25.5829 4.17891
lfingers 7.12502
lthumb 0.948599 34.1565
rfemur 4.81474 -19.2139 31.5402
rtibia 14.7886
rfoot -16.29 -23.8795
rtoes -9.41527
lfemur -25.3219 2.99162 -9.40938
ltibia 40.4075
lfoot -13.4514 4.34299
ltoes -14.7266
350
root 9.22332 17.531 0.515016 3.78851 -6.22493 -8.70722
lowerback 8.15294 5.26542 -3.82455
upperback 3.57292 6.55586 -8.1481
thorax -0.275008 3.30215 -6.92077
lowerneck -11.8643 -9.58787 -10.6474
upperneck -10.1521 -11.0729 15.1955
head 0.42679 -5.21666 5.80262
rclavicle 4.45278e-014 7.63333e-014
rhumerus 67.833 -12.0343 -43.961
rradius 29.7458
rwrist -6.15654
rhand -23.3916 17.7827
rfingers 7.12502
rthumb 3.06496 -12.175
lclavicle 4.45278e-014 7.63333e-014
lhumerus -36.7164 -4.95001 87.9049
lradius 114.286
lwrist 20.7563
lhand -25.6371 3.85192
lfingers 7.12502
lthumb 0.896243 33.8298
rfemur 4.68472 -18.8841 31.5901
rtibia 15.2202
rfoot -17.1522 -23.7552
rtoes -7.37678
lfemur -25.2877 2.95709 -9.33804
ltibia 40.4068
lfoot -13.586 4.19279
ltoes -11.452
351
root 9.22571 17.5232 0.514503 3.69291 -6.3253 -8.48521
lowerback 8.22946 5.22476 -4.12863
upperback 3.57276 6.46798 -8.20184
thorax -0.352065 3.25295 -6.81144
lowerneck -11.8697 -9.51554 -10.7028
upperneck -10.2505 -10.9594 15.1912
head 0.387697 -5.15934 5.82273
rclavicle 4.77083e-014 -3.49861e-014
rhumerus 66.8688 -11.4809 -43.2001
rradius 31.5769
rwrist -7.38324
rhand -23.6174 17.6523
rfingers 7.12502
rthumb 2.84686 -12.3084
lclavicle 4.77083e-014 -3.49861e-014
lhumerus -36.8989 -4.63561 88.0068
lradius 114.097
lwrist 20.8019
lhand -25.644 4.09213
lfingers 7.12502
lthumb 0.889606 34.07
rfemur 4.71958 -18.7196 31.3427
rtibia 15.3729
rfoot -17.5578 -23.6901
rtoes -6.32324
lfemur -25.225 2.98996 -9.60599
ltibia 40.4825
lfoot -13.565 4.3128
ltoes -12.0138
352
root 9.23117 17.5286 0.528785 3.56614 -6.48977 -8.12598
lowerback 8.08976 5.16791 -4.47483
upperback 3.61847 6.38117 -8.33133
thorax -0.256016 3.20582 -6.73421
lowerneck -12.005 -9.3878 -10.3088
upperneck -10.3719 -10.8157 14.7834
head 0.301185 -5.09619 5.64825
rclavicle -2.8625e-014 2.22639e-014
rhumerus 66.2763 -11.0093 -43.2134
rradius 33.0504
rwrist -7.65486
rhand -23.9557 17.406
rfingers 7.12502
rthumb 2.52015 -12.5589
lclavicle -2.8625e-014 2.22639e-014
lhumerus -37.2457 -4.3265 88.1043
lradius 114.183
lwrist 20.9338
lhand -25.8545 4.76357
lfingers 7.12502
lthumb 0.686321 34.7422
rfemur 4.94111 -18.8637 30.8199
rtibia 15.282
rfoot -17.6194 -23.6158
rtoes -6.04415
lfemur -25.0143 3.04758 -10.0654
ltibia 40.5817
lfoot -13.6277 4.63379
ltoes -15.2645
353
root 9.24037 17.5252 0.54164 3.65764 -6.66492 -8.19517
lowerback 7.78393 5.09882 -4.32398
upperback 3.58299 6.32978 -8.35658
thorax -0.110039 3.18329 -6.81053
lowerneck -12.0732 -9.28066 -9.97424
upperneck -10.4954 -10.7016 14.3352
head 0.208456 -5.04832 5.47121
rclavicle 4.77083e-014 -3.18055e-014
rhumerus 65.5455 -10.5679 -43.4364
rradius 34.6352
rwrist -7.83886
rhand -24.1647 17.4657
rfingers 7.12502
rthumb 2.31833 -12.5014
lclavicle 4.77083e-014 -3.18055e-014
lhumerus -37.6001 -4.08115 88.2112
lradius 114.322
lwrist 20.982
lhand -25.9525 5.23717
lfingers 7.12502
lthumb 0.591599 35.2161
rfemur 4.97578 -19.0817 30.7772
rtibia 15.1897
rfoot -17.5692 -23.3071
rtoes -5.81233
lfemur -25.0125 3.08497 -10.0143
ltibia 40.6646
lfoot -13.7261 4.79456
ltoes -16.0676
354
root 9.24909 17.5128 0.543122 3.76212 -6.90941 -8.50251
lowerback 7.7217 5.11178 -3.97108
upperback 3.4677 6.37013 -8.2521
thorax -0.168298 3.20695 -6.89699
lowerneck -12.0288 -9.22239 -9.92566
upperneck -10.5924 -10.6317 13.961
head 0.133056 -5.01614 5.36139
rclavicle -7.15625e-014 2.22639e-014
rhumerus 64.4139 -10.0493 -42.801
rradius 36.5276
rwrist -8.85756
rhand -24.1685 17.7238
rfingers 7.12502
rthumb 2.3146 -12.2434
lclavicle -7.15625e-014 2.22639e-014
lhumerus -37.9537 -3.9153 88.4524
lradius 114.333
lwrist 20.9058
lhand -25.8285 4.91065
lfingers 7.12502
lthumb 0.711388 34.8892
rfemur 4.92838 -19.1255 31.0496
rtibia 15.167
rfoot -17.283 -23.2214
rtoes -6.8073
lfemur -25.0493 3.15583 -9.66101
ltibia 40.7123
lfoot -13.7648 4.85671
ltoes -15.3038
355
root 9.25067 17.5128 0.540128 3.58599 -7.22503 -8.45979
lowerback 7.95487 5.17442 -4.01955
upperback 3.41576 6.4205 -8.2192
thorax -0.356078 3.22908 -6.8665
lowerneck -12.0173 -9.13482 -9.90761
upperneck -10.6615 -10.5164 13.6918
head 0.0762481 -4.95892 5.28927
rclavicle 2.38542e-014 -3.49861e-014
rhumerus 63.2905 -9.48969 -42.0971
rradius 38.4294
rwrist -9.82611
rhand -24.1845 18.0019
rfingers 7.12502
rthumb 2.29917 -11.9654
lclavicle 2.38542e-014 -3.49861e-014
lhumerus -38.2111 -3.9532 88.6813
lradius 114.156
lwrist 20.8966
lhand -25.7593 4.29291
lfingers 7.12502
lthumb 0.778206 34.2712
rfemur 5.05386 -18.9746 30.9437
rtibia 15.1811
rfoot -16.8359 -23.5759
rtoes -8.77457
lfemur -24.7822 3.31908 -9.70839
ltibia 40.6894
lfoot -13.7497 5.02263
ltoes -16.1125
356
root 9.25442 17.5118 0.538154 3.35455 -7.5452 -7.99906
lowerback 8.05066 5.21609 -4.4955
upperback 3.45169 6.4287 -8.28131
thorax -0.414343 3.22574 -6.6784
lowerneck -12.0728 -9.10089 -9.91441
upperneck -10.8086 -10.4573 13.5238
head 0.021907 -4.92782 5.24705
rclavicle -2.14687e-014 3.81667e-014
rhumerus 62.3474 -8.93729 -41.8026
rradius 40.2644
rwrist -10.6066
rhand -24.075 18.2143
rfingers 7.12502
rthumb 2.40489 -11.7519
lclavicle -2.14687e-014 3.81667e-014
lhumerus -38.2162 -4.11294 88.8303
lradius 113.906
lwrist 20.9
lhand -25.5631 4.25851
lfingers 7.12502
lthumb 0.967696 34.2361
rfemur 5.14368 -18.8033 30.3749
rtibia 15.399
rfoot -16.8149 -23.6053
rtoes -8.89944
lfemur -24.4633 3.40246 -10.224
ltibia 40.5744
lfoot -13.7662 5.11263
ltoes -15.2681
357
root 9.26299 17.5048 0.540165 3.2034 -7.74515 -7.55905
lowerback 7.96725 5.16707 -4.93477
upperback 3.54167 6.34428 -8.34752
thorax -0.319692 3.17727 -6.48572
lowerneck -12.4988 -9.04849 -9.80897
upperneck -10.7731 -10.3662 13.4132
head 0.072363 -4.87032 5.18756
rclavicle -3.18055e-014 1.90833e-014
rhumerus 61.5526 -8.41947 -41.8003
rradius 42.1226
rwrist -11.1852
rhand -23.9131 18.4096
rfingers 7.12502
rthumb 2.56127 -11.5548
lclavicle -3.18055e-014 1.90833e-014
lhumerus -38.1825 -4.13702 88.831
lradius 113.857
lwrist 20.8708
lhand -25.3519 4.51879
lfingers 7.12502
lthumb 1.1717 34.4953
rfemur 5.13784 -18.7936 29.8021
rtibia 15.765
rfoot -17.2355 -23.3034
rtoes -7.90191
lfemur -24.2112 3.21914 -10.6785
ltibia 40.381
lfoot -13.9085 5.03509
ltoes -11.3244
358
root 9.26712 17.5005 0.541115 3.09376 -7.83397 -7.39655
lowerback 7.94922 5.085 -5.06178
upperback 3.57087 6.22932 -8.39547
thorax -0.295448 3.1181 -6.45436
lowerneck -13.0463 -8.93486 -9.80059
upperneck -10.4244 -10.1883 13.5871
head 0.251019 -4.75914 5.22249
rclavicle 7.15625e-015 -2.54444e-014
rhumerus 60.6349 -7.92463 -42.1686
rradius 44.2745
rwrist -11.0835
rhand -23.7961 18.5593
rfingers 7.12502
rthumb 2.67427 -11.4037
lclavicle 7.15625e-015 -2.54444e-014
lhumerus -38.308 -4.19547 88.7404
lradius 113.86
lwrist 20.8511
lhand -25.1823 4.37007
lfingers 7.12502
lthumb 1.33548 34.3456
rfemur 5.09165 -18.8451 29.5691
rtibia 16.0731
rfoot -17.6775 -23.299
rtoes -8.58149
lfemur -23.9886 3.02589 -10.8302
ltibia 40.1804
lfoot -14.1446 5.11413
ltoes -9.79489
359
root 9.27102 17.4939 0.541965 3.06826 -8.0342 -7.43425
lowerback 7.88458 5.07683 -4.94774
upperback 3.51636 6.22934 -8.36598
thorax -0.308857 3.11926 -6.482
lowerneck -13.3253 -8.83608 -9.89377
upperneck -10.1278 -10.0398 13.668
head 0.374886 -4.66839 5.2553
rclavicle -3.49861e-014 1.59028e-014
rhumerus 59.435 -7.37221 -42.332
rradius 46.8311
rwrist -11.0353
rhand -23.6776 18.7046
rfingers 7.12502
rthumb 2.78872 -11.2569
lclavicle -3.49861e-014 1.59028e-014
lhumerus -38.4997 -4.39082 88.7887
lradius 113.796
lwrist 20.8196
lhand -25.011 4.18515
lfingers 7.12502
lthumb 1.50091 34.1596
rfemur 4.9787 -18.7547 29.593
rtibia 16.3764
rfoot -17.9286 -23.4934
rtoes -9.7258
lfemur -23.8181 3.0973 -10.8012
ltibia 40.0179
lfoot -14.2589 5.29283
ltoes -10.2192
360
root 9.27975 17.4909 0.538454 2.97893 -8.279 -7.37124
lowerback 7.94127 5.04829 -4.87446
upperback 3.40512 6.18007 -8.33348
thorax -0.457174 3.09461 -6.49606
lowerneck -13.2645 -8.69534 -9.85487
upperneck -10.1084 -9.86512 13.4832
head 0.336961 -4.58485 5.20873
rclavicle 5.40694e-014 2.8625e-014
rhumerus 58.0823 -6.63971 -42.1718
rradius 49.3621
rwrist -11.3856
rhand -23.8753 18.863
rfingers 7.12502
rthumb 2.59782 -11.1009
lclavicle 5.40694e-014 2.8625e-014
lhumerus -38.7239 -4.69468 88.8166
lradius 113.652
lwrist 20.8059
lhand -25.298 4.59738
lfingers 7.12502
lthumb 1.22376 34.5736
rfemur 4.95048 -18.6527 29.4845
rtibia 16.6023
rfoot -17.9384 -23.5332
rtoes -9.9466
lfemur -23.6301 3.15895 -10.8849
ltibia 39.9024
lfoot -14.1438 5.40892
ltoes -9.4962
361
root 9.29015 17.4943 0.52959 2.76503 -8.47006 -7.1396
lowerback 8.14512 5.00272 -4.93208
upperback 3.35084 6.08666 -8.33515
thorax -0.639555 3.04636 -6.48281
lowerneck -13.2243 -8.65701 -9.70164
upperneck -10.2125 -9.83426 13.2111
head 0.269359 -4.57748 5.10901
rclavicle 1.66979e-014 2.8625e-014
rhumerus 56.7552 -5.9052 -42.0091
rradius 51.7038
rwrist -11.7031
rhand -24.2339 18.9192
rfingers 7.12502
rthumb 2.25147 -11.0487
lclavicle 1.66979e-014 2.8625e-014
lhumerus -38.8309 -5.07536 88.8482
lradius 113.464
lwrist 20.8345
lhand -25.6375 4.8507
lfingers 7.12502
lthumb 0.895813 34.8286
rfemur 5.10179 -18.6243 29.1513
rtibia 16.6314
rfoot -18.1053 -23.4859
rtoes -9.7577
lfemur -23.3847 3.16917 -11.1537
ltibia 39.8422
lfoot -14.1628 5.53565
ltoes -9.28786
362
root 9.29736 17.5038 0.52598 2.67102 -8.71763 -7.21979
lowerback 8.11453 5.02578 -4.72973
upperback 3.43179 6.14638 -8.20458
thorax -0.527894 3.0778 -6.45151
lowerneck -13.6325 -8.73332 -9.49887
upperneck -10.1616 -9.93987 12.7542
head 0.312012 -4.62261 4.91608
rclavicle -4.29375e-014 1.04958e-013
rhumerus 55.4958 -5.39544 -41.8532
rradius 54.081
rwrist -12.0154
rhand -24.4796 19.0543
rfingers 7.12502
rthumb 2.01422 -10.9159
lclavicle -4.29375e-014 1.04958e-013
lhumerus -38.7148 -5.51136 89.0972
lradius 113.415
lwrist 20.8582
lhand -25.5585 4.74648
lfingers 7.12502
lthumb 0.97217 34.724
rfemur 5.18856 -18.379 29.1949
rtibia 16.6227
rfoot -18.5232 -23.5861
rtoes -9.01068
lfemur -23.1727 3.34236 -11.0806
ltibia 39.7882
lfoot -14.1952 5.60391
ltoes -9.97178
